<svg xmlns="http://www.w3.org/2000/svg" viewBox="0 0 200 200" width="200" height="200">
  <!-- Background circle -->
  <circle cx="100" cy="100" r="100" fill="#dbeafe"/>

  <!-- Tail feathers -->
  <path d="M158,118 Q178,108 174,128 Q168,120 158,130 Z" fill="#f59e0b"/>

  <!-- Body -->
  <ellipse cx="112" cy="128" rx="52" ry="40" fill="#fcd34d"/>

  <!-- Wing -->
  <path d="M88,118 Q120,110 138,128 Q120,140 92,138 Q85,128 88,118 Z" fill="#f59e0b" opacity="0.85"/>
  <path d="M105,123 Q120,121 130,128" stroke="#d97706" stroke-width="1" fill="none" opacity="0.6"/>
  <path d="M100,128 Q118,127 130,133" stroke="#d97706" stroke-width="1" fill="none" opacity="0.6"/>

  <!-- Neck -->
  <ellipse cx="78" cy="100" rx="18" ry="22" fill="#fcd34d"/>

  <!-- Head -->
  <circle cx="68" cy="78" r="32" fill="#fcd34d"/>

  <!-- Cheek blush -->
  <ellipse cx="58" cy="86" rx="6" ry="4" fill="#fbcfe8" opacity="0.6"/>

  <!-- Beak (upper) -->
  <path d="M50,80 Q28,80 30,90 Q42,87 52,86 Z" fill="#fb923c"/>
  <!-- Beak (lower) -->
  <path d="M50,86 Q34,90 32,94 Q44,94 52,90 Z" fill="#ea580c"/>

  <!-- Eye -->
  <circle cx="64" cy="70" r="6" fill="white"/>
  <circle cx="64" cy="71" r="4" fill="#1e3a8a"/>
  <circle cx="65.5" cy="69.5" r="1.5" fill="white"/>

  <!-- Water ripples -->
  <ellipse cx="55" cy="178" rx="18" ry="2.5" fill="none" stroke="#60a5fa" stroke-width="2" opacity="0.5"/>
  <ellipse cx="135" cy="180" rx="22" ry="2.5" fill="none" stroke="#60a5fa" stroke-width="2" opacity="0.5"/>
  <ellipse cx="100" cy="186" rx="14" ry="2" fill="none" stroke="#60a5fa" stroke-width="1.5" opacity="0.4"/>
</svg>
